<svg width="400" height="400" viewBox="0 0 400 400" fill="none" xmlns="http://www.w3.org/2000/svg">
  <rect width="400" height="400" fill="#F4F4F5"/>
  <path d="M200 140C186.745 140 176 150.745 176 164V236C176 249.255 186.745 260 200 260C213.255 260 224 249.255 224 236V164C224 150.745 213.255 140 200 140Z" fill="#E4E4E7"/>
  <path d="M200 180C195.582 180 192 183.582 192 188V212C192 216.418 195.582 220 200 220C204.418 220 208 216.418 208 212V188C208 183.582 204.418 180 200 180Z" fill="#D4D4D8"/>
</svg>